<?xml version="1.0" standalone="no"?>
<!DOCTYPE svg PUBLIC "-//W3C//DTD SVG 20010904//EN"
 "http://www.w3.org/TR/2001/REC-SVG-20010904/DTD/svg10.dtd">
<svg version="1.0" xmlns="http://www.w3.org/2000/svg"
 width="720.000000pt" height="720.000000pt" viewBox="0 0 720.000000 720.000000"
 preserveAspectRatio="xMidYMid meet">
<metadata>
Created by potrace 1.14, written by Peter Selinger 2001-2017
</metadata>
<g transform="translate(0.000000,720.000000) scale(0.100000,-0.100000)"
fill="#000000" stroke="none">
<path d="M3388 7195 c-1 -1 -46 -5 -98 -9 -52 -3 -111 -9 -130 -12 -222 -34
-306 -50 -425 -80 -710 -178 -1351 -566 -1825 -1104 -41 -47 -77 -87 -80 -90
-25 -25 -131 -166 -192 -255 -202 -296 -359 -612 -461 -930 -32 -101 -55 -179
-57 -197 -1 -4 -6 -22 -11 -40 -10 -36 -44 -191 -53 -248 -3 -19 -8 -46 -11
-60 -3 -14 -7 -49 -11 -78 -3 -29 -7 -61 -9 -71 -26 -135 -26 -683 -1 -841 3
-14 7 -47 11 -75 5 -45 13 -93 30 -190 4 -26 46 -207 59 -256 39 -148 123
-382 194 -539 298 -660 801 -1226 1426 -1605 126 -77 410 -217 536 -265 95
-37 365 -127 401 -134 13 -3 56 -12 94 -21 94 -21 265 -53 323 -60 26 -3 56
-8 67 -10 127 -26 685 -26 850 0 17 2 48 7 70 9 41 5 83 12 145 22 19 4 49 8
65 11 17 2 44 8 60 13 17 5 42 11 56 14 78 13 358 98 489 149 178 69 474 213
521 253 8 8 18 14 22 14 3 0 51 29 107 65 762 495 1305 1245 1535 2120 29 113
70 320 80 410 4 33 9 62 10 65 10 17 20 239 19 440 0 212 -2 266 -20 420 -6
51 -32 223 -39 258 -3 12 -7 34 -10 50 -3 15 -13 54 -21 87 -9 33 -18 70 -20
83 -11 54 -79 267 -127 391 -107 285 -317 657 -509 903 -431 552 -1019 975
-1666 1199 -126 43 -266 84 -321 94 -19 3 -37 8 -41 10 -4 2 -20 7 -36 9 -16
3 -40 8 -54 11 -175 36 -207 41 -310 50 -41 4 -88 9 -105 12 -33 5 -521 13
-527 8z"/>
</g>
</svg>
